<svg width="50" height="68" viewBox="0 0 50 68" fill="none" xmlns="http://www.w3.org/2000/svg">
<path d="M18.2998 58.7114H19.1001C19.383 58.7114 19.6157 58.6631 19.7983 58.5664C19.9845 58.4661 20.1224 58.3301 20.2119 58.1582C20.305 57.9827 20.3516 57.7804 20.3516 57.5513C20.3516 57.3257 20.3104 57.1305 20.228 56.9658C20.1457 56.7975 20.0203 56.6686 19.8521 56.5791C19.6873 56.486 19.4761 56.4395 19.2183 56.4395C19.0106 56.4395 18.819 56.4806 18.6436 56.563C18.4717 56.6453 18.3338 56.7635 18.23 56.9175C18.1297 57.0679 18.0796 57.2487 18.0796 57.46H16.6562C16.6562 57.0374 16.7673 56.6668 16.9893 56.3481C17.2148 56.0259 17.5192 55.7734 17.9023 55.5908C18.2855 55.4082 18.7134 55.3169 19.186 55.3169C19.7017 55.3169 20.1528 55.4028 20.5396 55.5747C20.9299 55.743 21.2324 55.9919 21.4473 56.3213C21.6657 56.6507 21.7749 57.0589 21.7749 57.5459C21.7749 57.7786 21.7194 58.0114 21.6084 58.2441C21.501 58.4733 21.3416 58.681 21.1304 58.8672C20.9227 59.0498 20.6667 59.1984 20.3623 59.313C20.0615 59.424 19.716 59.4795 19.3257 59.4795H18.2998V58.7114ZM18.2998 59.8071V59.0498H19.3257C19.7661 59.0498 20.1475 59.1017 20.4697 59.2056C20.7956 59.3058 21.0641 59.4491 21.2754 59.6353C21.4867 59.8179 21.6424 60.0309 21.7427 60.2744C21.8465 60.5179 21.8984 60.7793 21.8984 61.0586C21.8984 61.4238 21.8304 61.7497 21.6943 62.0361C21.5583 62.319 21.3667 62.5589 21.1196 62.7559C20.8761 62.9528 20.5897 63.1032 20.2603 63.207C19.9308 63.3073 19.5745 63.3574 19.1914 63.3574C18.8584 63.3574 18.5343 63.3127 18.2192 63.2231C17.9077 63.13 17.6266 62.9922 17.376 62.8096C17.1253 62.6234 16.9266 62.3906 16.7798 62.1113C16.633 61.8285 16.5596 61.5008 16.5596 61.1284H17.9829C17.9829 61.3433 18.0348 61.5348 18.1387 61.7031C18.2461 61.8714 18.3929 62.0039 18.5791 62.1006C18.7689 62.1937 18.9819 62.2402 19.2183 62.2402C19.4797 62.2402 19.7035 62.1937 19.8896 62.1006C20.0794 62.0039 20.2244 61.8678 20.3247 61.6924C20.425 61.5133 20.4751 61.3003 20.4751 61.0532C20.4751 60.7596 20.4196 60.5215 20.3086 60.3389C20.1976 60.1562 20.0382 60.022 19.8306 59.936C19.6265 59.8501 19.383 59.8071 19.1001 59.8071H18.2998ZM24.2188 57.4385L25.2554 59.2861L26.3081 57.4385H27.8496L26.1416 60.2852L27.9194 63.25H26.3779L25.2661 61.311L24.1489 63.25H22.6074L24.3799 60.2852L22.6826 57.4385H24.2188ZM30.1484 58.7114H30.9487C31.2316 58.7114 31.4644 58.6631 31.647 58.5664C31.8332 58.4661 31.971 58.3301 32.0605 58.1582C32.1536 57.9827 32.2002 57.7804 32.2002 57.5513C32.2002 57.3257 32.159 57.1305 32.0767 56.9658C31.9943 56.7975 31.869 56.6686 31.7007 56.5791C31.536 56.486 31.3247 56.4395 31.0669 56.4395C30.8592 56.4395 30.6676 56.4806 30.4922 56.563C30.3203 56.6453 30.1825 56.7635 30.0786 56.9175C29.9784 57.0679 29.9282 57.2487 29.9282 57.46H28.5049C28.5049 57.0374 28.6159 56.6668 28.8379 56.3481C29.0635 56.0259 29.3678 55.7734 29.751 55.5908C30.1341 55.4082 30.562 55.3169 31.0347 55.3169C31.5503 55.3169 32.0015 55.4028 32.3882 55.5747C32.7785 55.743 33.0811 55.9919 33.2959 56.3213C33.5143 56.6507 33.6235 57.0589 33.6235 57.5459C33.6235 57.7786 33.568 58.0114 33.457 58.2441C33.3496 58.4733 33.1903 58.681 32.979 58.8672C32.7713 59.0498 32.5153 59.1984 32.2109 59.313C31.9102 59.424 31.5646 59.4795 31.1743 59.4795H30.1484V58.7114ZM30.1484 59.8071V59.0498H31.1743C31.6147 59.0498 31.9961 59.1017 32.3184 59.2056C32.6442 59.3058 32.9128 59.4491 33.124 59.6353C33.3353 59.8179 33.491 60.0309 33.5913 60.2744C33.6951 60.5179 33.7471 60.7793 33.7471 61.0586C33.7471 61.4238 33.679 61.7497 33.543 62.0361C33.4069 62.319 33.2153 62.5589 32.9683 62.7559C32.7248 62.9528 32.4383 63.1032 32.1089 63.207C31.7795 63.3073 31.4232 63.3574 31.04 63.3574C30.707 63.3574 30.383 63.3127 30.0679 63.2231C29.7563 63.13 29.4753 62.9922 29.2246 62.8096C28.974 62.6234 28.7752 62.3906 28.6284 62.1113C28.4816 61.8285 28.4082 61.5008 28.4082 61.1284H29.8315C29.8315 61.3433 29.8835 61.5348 29.9873 61.7031C30.0947 61.8714 30.2415 62.0039 30.4277 62.1006C30.6175 62.1937 30.8306 62.2402 31.0669 62.2402C31.3283 62.2402 31.5521 62.1937 31.7383 62.1006C31.9281 62.0039 32.0731 61.8678 32.1733 61.6924C32.2736 61.5133 32.3237 61.3003 32.3237 61.0532C32.3237 60.7596 32.2682 60.5215 32.1572 60.3389C32.0462 60.1562 31.8869 60.022 31.6792 59.936C31.4751 59.8501 31.2316 59.8071 30.9487 59.8071H30.1484Z" fill="white"/>
<rect x="15" y="13.75" width="5" height="5" rx="1" fill="white"/>
<rect x="30" y="13.75" width="5" height="5" rx="1" fill="white"/>
<rect x="22.5" y="13.75" width="5" height="5" rx="1" fill="white"/>
<rect x="15" y="21.25" width="5" height="5" rx="1" fill="white"/>
<rect x="15" y="28.75" width="5" height="5" rx="1" fill="white"/>
<rect x="30" y="21.25" width="5" height="5" rx="1" fill="white"/>
<rect x="30" y="28.75" width="5" height="5" rx="1" fill="white"/>
<rect x="22.5" y="21.25" width="5" height="5" rx="1" fill="white"/>
<rect x="22.5" y="28.75" width="5" height="5" rx="1" fill="white"/>
<rect x="0.5" y="0.5" width="49" height="46.5" rx="4.5" stroke="white"/>
</svg>
